<?xml version="1.0" standalone="no"?>
<!DOCTYPE svg PUBLIC "-//W3C//DTD SVG 1.1//EN" "http://www.w3.org/Graphics/SVG/1.1/DTD/svg11.dtd" >
<svg xmlns="http://www.w3.org/2000/svg" xmlns:xlink="http://www.w3.org/1999/xlink" version="1.1">
<metadata></metadata>
<defs>
<font id="nanummyeongjoregular" horiz-adv-x="1946" >
<font-face units-per-em="2048" ascent="1638" descent="-410" />
<missing-glyph horiz-adv-x="614" />
<glyph horiz-adv-x="0" />
<glyph horiz-adv-x="682" />
<glyph unicode=" "  horiz-adv-x="614" />
<glyph unicode="&#x09;" horiz-adv-x="614" />
<glyph unicode="&#xa0;" horiz-adv-x="614" />
<glyph unicode="!" horiz-adv-x="758" d="M316 968q-12 102 -28 207t-16 203q0 34 6 67t19 60t32 44t47 17q30 0 50 -17t34 -44t20 -61t6 -70q0 -96 -15 -198t-25 -204t-14 -211t-7 -199t-4 -151t-1 -67h-74v67t-3 151t-9 197t-18 209zM380 -82q-52 0 -87 35t-35 85q0 48 35 85t87 37q54 0 90 -36t36 -86t-36 -85 t-90 -35z" />
<glyph unicode="&#x22;" horiz-adv-x="656" d="M500 1218h-64l-38 406q-4 26 16 53t48 27q40 0 62 -27t18 -53zM222 1218h-66l-44 406q-4 26 18 53t54 27q34 0 56 -27t18 -53z" />
<glyph unicode="#" horiz-adv-x="1264" d="M928 1554h116l-94 -466h252l-14 -78h-252l-84 -422h272l-20 -76h-268l-98 -496h-120l100 496h-280l-102 -496h-124l106 496h-260l18 76h256l88 422h-280l16 78h280l98 466h120l-96 -466h276zM540 1010l-86 -422h280l86 422h-280z" />
<glyph unicode="$" horiz-adv-x="1264" d="M196 398q18 -76 45 -137t70 -106t106 -71t151 -32v716q-106 44 -180 89t-120 97t-68 111t-22 129q0 72 34 133t89 105t125 70t142 28v144h104v-144q44 -4 93 -14t96 -25t89 -36t74 -45v-242h-40q-12 62 -35 117t-60 97t-91 69t-126 33v-626q116 -54 199 -101t135 -99 t75 -115t21 -147q-2 -74 -32 -144t-85 -124t-134 -89t-179 -39v-204h-104v206q-72 2 -123 8t-94 19t-88 35t-107 56v278h40zM672 46q58 6 116 30t103 64t74 94t29 118q0 72 -19 127t-60 99t-102 82t-141 76v-690zM568 1482q-58 -4 -109 -29t-90 -63t-62 -85t-23 -95 q0 -56 21 -103t59 -86t90 -71t114 -58v590z" />
<glyph unicode="%" horiz-adv-x="1802" d="M1202 1316q-40 -22 -89 -35t-100 -15t-101 7t-94 31q16 -52 15 -103t-16 -102t-39 -99t-54 -92q-40 -60 -89 -110t-108 -81t-128 -41t-145 10q-68 20 -111 74t-51 132t22 174t106 198q56 76 130 123t147 66t140 11t111 -44q16 -14 24 -24t18 -20q56 -30 125 -41t141 1 t143 47t131 95h80l-898 -1442h-102zM602 1412q-42 -4 -83 -23t-79 -46t-70 -61t-56 -70q-52 -80 -81 -158t-31 -143t26 -111t90 -62q40 -10 88 0t96 38t93 71t79 99q62 102 82 204t-12 178q-80 20 -142 84zM1178 40q-94 26 -140 83t-53 132t19 161t76 168q32 52 83 102 t114 85t136 48t151 -7q78 -22 119 -70t51 -113t-7 -140t-55 -151q-42 -88 -99 -152t-122 -103t-135 -51t-138 8zM1576 750q-52 22 -103 16t-100 -33t-93 -74t-82 -107q-44 -70 -70 -142t-28 -135t23 -109t83 -64q60 -18 116 -3t107 51t94 88t75 112q30 58 47 121t17 118 t-21 98t-65 63z" />
<glyph unicode="&#x26;" horiz-adv-x="1758" d="M978 192q-92 -84 -209 -136t-232 -66t-215 16t-156 110q-74 108 -77 216t50 205t154 180t237 143q-34 80 -56 161t-20 157q2 68 25 133t67 115t106 80t140 30q66 0 121 -18t96 -51t64 -83t23 -112q0 -74 -31 -135t-87 -112t-137 -95t-179 -86q36 -76 79 -149t85 -133 q40 -58 86 -119t96 -119q46 52 91 116t82 131t62 133t29 124q2 36 -8 54t-30 25t-48 8t-60 1v52h470v-52q-48 -4 -81 -6t-57 -11t-42 -30t-32 -63q-46 -126 -126 -265t-200 -271q84 -86 164 -143t146 -57q82 0 155 43t113 133l48 -10q-28 -112 -109 -181t-193 -71 q-108 -2 -209 58t-195 150zM560 798q-100 -46 -178 -113t-121 -147t-42 -170t63 -184q42 -64 116 -91t162 -19t184 51t184 121q-62 70 -115 141t-95 135q-36 58 -79 129t-79 147zM632 906q166 72 268 164t102 208q0 50 -17 89t-45 65t-64 39t-74 13q-50 0 -93 -21t-75 -60 t-50 -95t-18 -124q0 -60 19 -131t47 -147z" />
<glyph unicode="'" horiz-adv-x="360" d="M204 1218h-52l-46 406q-4 26 18 53t54 27q36 0 58 -27t18 -53z" />
<glyph unicode="(" horiz-adv-x="748" d="M694 -188q-260 208 -375 446t-115 496q0 274 122 519t358 419l34 -40q-96 -80 -169 -185t-121 -223t-73 -244t-25 -246q0 -246 95 -477t303 -421z" />
<glyph unicode=")" horiz-adv-x="748" d="M46 -144q206 190 301 421t95 477q0 120 -25 246t-73 244t-121 223t-169 185l34 40q236 -174 358 -419t122 -519q0 -258 -115 -496t-375 -446z" />
<glyph unicode="*" horiz-adv-x="1308" d="M630 1316q-4 40 -12 77t-18 63q-10 38 -21 69t-11 65q0 46 23 73t63 27t64 -27t24 -73q0 -34 -12 -65t-22 -69q-10 -24 -18 -60t-14 -76q30 24 57 50t45 50q30 24 52 47t50 41q46 28 80 21t54 -41q22 -34 9 -67t-55 -55q-28 -16 -63 -23t-71 -17q-34 -4 -70 -16t-76 -28 q40 -16 76 -25t70 -13q36 -10 70 -18t62 -24q92 -50 46 -122q-42 -70 -132 -24q-28 18 -52 43t-52 49q-16 22 -43 48t-57 52q6 -40 14 -76t18 -62q10 -38 22 -69t12 -65q0 -46 -24 -73t-64 -27t-63 27t-23 73q0 34 11 65t21 69q10 28 18 64t12 76q-28 -22 -57 -46t-45 -46 q-28 -26 -50 -51t-52 -43q-90 -46 -136 24q-18 32 -6 65t56 57q28 16 62 22t74 16q28 4 61 13t69 21q-36 16 -71 26t-63 16q-40 10 -74 15t-62 21q-46 24 -58 56t8 66q22 34 57 42t79 -16q30 -18 52 -43t50 -51q16 -24 46 -49t60 -49z" />
<glyph unicode="+" horiz-adv-x="1308" d="M712 730v-452h-116v452h-436v94h436v434h116v-434h438v-94h-438z" />
<glyph unicode="," horiz-adv-x="560" d="M250 -46q-24 -6 -47 1t-41 22t-29 36t-11 47q0 48 36 81t88 33q70 0 107 -48t37 -126q0 -108 -54 -187t-162 -119l-28 34q160 74 160 208q0 24 -10 28t-22 0l-24 -10v0z" />
<glyph unicode="-" horiz-adv-x="1308" d="M166 728v96h976v-96h-976z" />
<glyph unicode="." horiz-adv-x="560" d="M264 -68q-54 0 -88 34t-34 86q0 50 34 85t88 35t90 -35t36 -85q0 -52 -36 -86t-90 -34z" />
<glyph unicode="/" horiz-adv-x="888" d="M166 -72h-106l660 1680h110z" />
<glyph unicode="0" horiz-adv-x="1100" d="M94 754q0 152 27 293t83 249t143 173t205 65t205 -64t143 -172t83 -249t27 -293q0 -154 -28 -294t-85 -247t-143 -171t-202 -64q-118 0 -205 64t-143 170t-83 246t-27 294zM552 50q80 0 139 51t98 144t59 223t20 286t-20 287t-59 226t-98 149t-139 54q-78 0 -137 -53 t-99 -148t-60 -226t-20 -287t21 -286t61 -223t99 -145t135 -52z" />
<glyph unicode="1" horiz-adv-x="1100" d="M648 1548v-1312q0 -58 14 -91t42 -49t70 -20t96 -6v-56h-574v58q48 2 88 5t70 19t47 49t17 95v982q0 54 -9 84t-35 37t-73 -7t-121 -46v62z" />
<glyph unicode="2" horiz-adv-x="1100" d="M118 64q66 70 141 157t146 174t131 163t96 124q34 44 69 98t64 112t48 117t19 115q0 50 -16 106t-52 102t-95 76t-145 30q-64 0 -117 -27t-96 -73t-76 -106t-53 -126l-60 8q16 80 50 156t89 135t130 94t171 35q84 0 157 -30t125 -84t82 -127t30 -159q0 -64 -19 -130 t-48 -128t-65 -118t-70 -100q-106 -142 -210 -269t-226 -271h428q54 0 88 4t58 18t44 43t48 77h48l-92 -246h-822v50z" />
<glyph unicode="3" horiz-adv-x="1100" d="M904 1232q0 -54 -20 -106t-54 -100t-79 -90t-97 -76q66 -12 124 -44t102 -82t70 -114t26 -140q0 -108 -32 -189t-89 -139t-136 -97t-175 -59q-72 -16 -142 -12t-125 21t-89 44t-34 57q0 28 19 50t53 22q40 0 77 -16t73 -40q50 -34 85 -43t75 -7q56 2 112 27t100 68 t72 102t30 131q4 208 -112 300t-352 66l2 56q84 18 153 56t118 89t77 112t28 125q0 114 -62 176t-170 62q-58 0 -108 -21t-90 -55t-69 -79t-47 -95l-60 2q18 74 56 137t92 109t122 72t148 26q66 0 125 -22t104 -62t72 -97t27 -125z" />
<glyph unicode="4" horiz-adv-x="1100" d="M820 1546v-1038h236v-96h-236v-398h-126v398h-612v90l662 1044h76zM180 508h512v800z" />
<glyph unicode="5" horiz-adv-x="1100" d="M422 -10q-48 0 -104 8t-102 23t-77 38t-31 55q0 34 24 50t60 16q38 0 70 -13t70 -31q28 -16 76 -38t100 -20q64 2 120 33t97 86t65 130t24 163q0 230 -144 351t-434 107q-24 -2 -38 8t-8 22l218 536h538l-24 -112h-470l-128 -332q146 6 263 -29t197 -102t123 -165 t43 -218q0 -116 -40 -219t-111 -180t-168 -122t-209 -45z" />
<glyph unicode="6" horiz-adv-x="1100" d="M284 840q62 64 128 94t136 36q92 8 176 -25t146 -100t99 -162t37 -209q0 -106 -29 -197t-84 -157t-133 -103t-176 -37q-102 0 -188 47t-148 132t-96 203t-34 258q0 188 62 355t175 291t270 197t349 75l2 -52q-130 -8 -244 -58t-204 -134t-154 -199t-90 -255zM264 566 q-4 -100 15 -194t60 -166t103 -116t144 -44q80 0 134 37t87 98t46 138t9 157q-4 84 -30 162t-70 137t-106 90t-136 21q-108 -14 -180 -98t-76 -222z" />
<glyph unicode="7" horiz-adv-x="1100" d="M1012 1492l-462 -1476h-114l426 1372h-444q-54 0 -89 -10t-62 -31t-51 -54t-56 -79l-56 12l124 288h776z" />
<glyph unicode="8" horiz-adv-x="1100" d="M952 1184q0 -70 -21 -129t-55 -107t-81 -86t-97 -64q144 -58 224 -148t80 -234q0 -100 -35 -180t-97 -137t-146 -87t-182 -30q-86 0 -165 28t-139 78t-96 121t-36 155q0 78 25 146t68 123t99 94t120 59q-118 58 -191 148t-73 232q0 84 31 152t86 117t130 76t165 27 q70 0 139 -23t124 -67t89 -111t34 -153zM276 1184q0 -112 97 -204t259 -144q100 56 156 136t56 188q0 76 -22 135t-60 100t-90 63t-110 22q-54 0 -106 -20t-92 -58t-64 -93t-24 -125zM220 368q0 -76 27 -135t72 -99t103 -62t118 -22q68 0 129 23t106 65t72 99t27 127 q0 88 -26 147t-75 102t-120 75t-161 68q-144 -64 -208 -161t-64 -227z" />
<glyph unicode="9" horiz-adv-x="1100" d="M836 674q-62 -66 -128 -96t-138 -38q-94 -8 -177 26t-145 101t-99 162t-37 209q0 106 29 196t84 156t133 104t176 38q102 0 188 -47t148 -131t96 -202t34 -262q0 -188 -62 -354t-175 -291t-270 -197t-349 -74l-2 52q134 12 249 62t205 134t151 198t89 254zM854 946 q4 100 -15 195t-60 168t-103 118t-144 45q-80 0 -135 -38t-88 -100t-45 -140t-8 -158q4 -84 30 -162t70 -137t105 -91t137 -22q108 18 180 101t76 221z" />
<glyph unicode=":" horiz-adv-x="840" d="M426 196q-54 0 -88 35t-34 85q0 48 35 85t87 37q54 0 89 -36t35 -86t-35 -85t-89 -35zM426 1084q-54 0 -88 34t-34 86q0 48 35 85t87 37q54 0 89 -36t35 -86q0 -52 -35 -86t-89 -34z" />
<glyph unicode=";" horiz-adv-x="840" d="M426 1084q-54 0 -88 34t-34 84t35 87t87 37q54 0 89 -36t35 -88q0 -50 -35 -84t-89 -34zM426 248q-46 -10 -86 21t-40 83q0 50 35 82t87 32q70 0 107 -47t37 -127q0 -108 -54 -186t-162 -118l-28 32q160 78 160 210q0 22 -10 26t-22 0z" />
<glyph unicode="&#x3c;" horiz-adv-x="1122" d="M1020 -184l-716 900v56l716 900l76 -48l-696 -878l696 -884z" />
<glyph unicode="=" horiz-adv-x="1308" d="M166 934v90h976v-90h-976zM166 528v90h976v-90h-976z" />
<glyph unicode="&#x3e;" horiz-adv-x="1122" d="M756 746l-696 880l74 46l720 -898v-56l-720 -902l-74 44z" />
<glyph unicode="?" horiz-adv-x="1074" d="M312 1148q0 -32 -21 -60t-45 -32t-46 5t-38 27t-27 43t-11 53q-2 84 31 152t91 116t134 74t160 26q86 0 161 -23t131 -70t88 -117t32 -164q0 -44 -19 -95t-49 -104t-68 -106t-76 -103q-92 -114 -126 -229t-38 -215h-62q-12 230 140 460q24 36 52 81t52 96t39 105t15 110 q-4 162 -84 243t-194 81q-64 0 -117 -18t-93 -48t-62 -68t-22 -76q0 -24 11 -39t25 -29t25 -32t11 -44zM536 -82q-54 0 -88 35t-34 85q0 48 35 85t87 37q54 0 90 -36t36 -86t-36 -85t-90 -35z" />
<glyph unicode="@" horiz-adv-x="1748" d="M900 8q-182 -4 -335 47t-261 147t-164 235t-44 311q12 160 76 299t170 242t251 165t319 68q138 4 269 -40t233 -128t164 -200t62 -256q0 -132 -47 -238t-122 -180t-167 -114t-184 -40q-52 0 -94 22t-66 74q-62 -56 -124 -84t-142 -28q-92 0 -154 39t-94 105t-33 155 t29 191q26 80 69 152t100 126t127 85t148 31q100 0 162 -33t84 -85l34 84h126l-238 -652q-18 -52 6 -94t86 -32q72 12 142 53t125 107t90 152t35 186q0 128 -52 234t-140 183t-202 118t-236 39q-150 -4 -274 -60t-216 -150t-148 -218t-68 -264q-14 -168 36 -296t148 -215 t234 -131t296 -46q86 0 174 19t168 53t150 82t122 104l52 -48q-124 -116 -291 -194t-391 -82zM1072 898q14 38 11 78t-20 72t-48 53t-73 25q-68 6 -124 -19t-100 -70t-78 -103t-56 -120q-26 -70 -39 -146t-5 -141t42 -110t104 -49q56 -4 101 16t80 55t59 80t42 91z" />
<glyph unicode="A" horiz-adv-x="1488" d="M346 278q-40 -110 -18 -161t156 -51v-50q-100 2 -220 2t-216 -2v54q54 0 88 10t58 36q24 24 42 65t40 103l452 1286h40l438 -1290q20 -62 42 -102t48 -62q28 -24 63 -35t83 -15v-50q-50 0 -113 1t-129 1q-68 0 -131 -1t-111 -1v50q64 0 100 8t48 32t3 66t-29 110 l-102 296h-528zM956 646l-236 706l-244 -706h480z" />
<glyph unicode="B" horiz-adv-x="1254" d="M414 252q0 -60 8 -95t34 -53t71 -22t121 -4q174 0 277 78t103 238q0 194 -124 283t-322 89h-168v-514zM414 832h120q158 0 263 72t105 256q0 168 -100 227t-260 59q-20 0 -62 -2t-66 -2v-610zM86 64q60 0 98 7t58 27q22 22 30 59t8 97v1028q0 102 -37 138t-157 38v50 q48 -2 112 -3t130 -1t130 1t114 3q82 0 164 -17t148 -59q66 -40 108 -107t42 -165q0 -78 -28 -135t-74 -97q-46 -42 -106 -69t-122 -43q92 -2 177 -30t149 -80q66 -50 104 -124t38 -166q0 -176 -140 -288t-402 -112q-58 0 -128 1t-144 1t-145 -1t-127 -1v48z" />
<glyph unicode="C" horiz-adv-x="1490" d="M1398 1126h-36q-30 180 -135 267t-303 87q-140 0 -259 -51t-205 -143t-134 -218t-48 -278q0 -168 53 -305t145 -235t216 -151t266 -53q180 0 274 105t124 261h46l-52 -330q-28 -18 -81 -36t-115 -32q-64 -14 -127 -23t-111 -9q-174 0 -317 56t-247 162q-104 104 -161 252 t-57 332q0 166 65 305t175 241q108 100 248 156t288 56q120 0 239 -30t229 -74z" />
<glyph unicode="D" horiz-adv-x="1612" d="M268 1272q0 56 -8 92t-28 56q-22 22 -61 30t-101 8v50q126 -2 283 -2t301 2q194 0 347 -62t257 -166q106 -104 161 -238t55 -278q0 -142 -52 -277t-156 -239q-106 -106 -264 -169t-372 -63q-60 0 -132 1t-148 1t-149 -1t-131 -1v54q62 0 101 7t61 29q20 22 28 61t8 101 v1004zM402 266q0 -62 10 -99t38 -57t80 -26t134 -6q174 0 300 56t206 150q82 94 120 220t38 264q0 158 -50 283t-142 213q-94 86 -227 133t-301 47q-36 0 -67 -1t-57 -3q-28 -2 -48 -3t-34 -1v-1170z" />
<glyph unicode="E" horiz-adv-x="1254" d="M414 832h302q88 0 123 38t35 146h48v-474h-48q0 64 -7 104t-25 62q-18 24 -49 32t-79 8h-300v-472q0 -64 9 -103t39 -59q28 -22 79 -29t133 -7h138q84 0 140 12t94 42t64 81t52 129h52q-14 -40 -27 -81t-25 -81q-12 -42 -22 -83t-18 -81q-262 4 -530 4t-514 -4v50 q126 0 164 42t38 168v990q0 62 -9 100t-33 58q-22 18 -61 25t-99 7v52q240 -6 494 -6t480 6v-320h-42q-8 82 -23 133t-49 79q-32 26 -88 36t-146 10h-290v-614z" />
<glyph unicode="F" horiz-adv-x="1136" d="M414 280q0 -72 7 -114t27 -64q22 -22 60 -29t102 -7v-50q-42 0 -115 1t-151 1q-80 0 -153 -1t-113 -1v50q66 0 106 7t62 31q20 22 27 64t7 112v986q0 62 -9 99t-31 55q-22 20 -61 27t-101 9v54q240 -6 486 -6t486 6l12 -302l-52 2q-10 68 -23 114t-45 72q-30 28 -86 39 t-150 11h-292v-614h292q96 0 133 32t43 146h56q-4 -40 -5 -99t-1 -125t1 -128t5 -106h-50q-6 110 -41 153t-137 43h-296v-468z" />
<glyph unicode="G" horiz-adv-x="1612" d="M1444 1130h-52q-40 178 -153 264t-309 86q-156 0 -277 -62t-203 -162t-124 -227t-42 -259q0 -140 43 -271t129 -231q84 -102 207 -162t283 -60q146 0 225 38t103 56v314q0 102 -48 129t-146 27v52q52 -2 116 -3t128 -1q66 0 127 1t109 3v-50q-68 0 -111 -28t-43 -130 v-272l34 -34v-50q-126 -54 -258 -85t-262 -31q-174 0 -318 61t-248 165q-104 106 -161 247t-57 301q0 168 59 312t163 248q102 106 240 166t296 60q136 0 257 -28t255 -78z" />
<glyph unicode="H" horiz-adv-x="1732" d="M1340 840v428q0 64 -10 101t-32 57t-61 25t-95 7v52q42 -2 116 -3t152 -1q80 0 150 1t108 3v-52q-58 -2 -96 -8t-60 -26q-24 -20 -32 -57t-8 -99v-986q0 -68 8 -110t30 -66t60 -32t98 -8v-50q-38 2 -109 3t-149 1t-152 -1t-116 -3v50q62 0 100 10t60 34t30 65t8 107v474 h-946v-474q0 -66 6 -108t28 -66q20 -24 58 -33t102 -9v-50q-40 0 -111 1t-149 1h-152t-112 -2v50q120 0 158 43t38 173v980q0 64 -9 102t-31 58q-22 22 -60 28t-96 8v52q38 -4 109 -5t151 -1q78 0 151 1t113 5v-52q-58 -2 -96 -9t-60 -27q-22 -22 -30 -60t-8 -100v-422h946z " />
<glyph unicode="I" horiz-adv-x="654" d="M260 1264q0 64 -9 102t-31 58t-60 26t-96 8v52q38 -4 109 -4h151q78 0 151 1t113 3v-52q-58 -2 -96 -8t-60 -26t-30 -58t-8 -102v-982q0 -132 39 -174t155 -42v-50q-40 0 -111 1t-149 1h-152t-112 -2v50q116 0 156 43t40 173v982z" />
<glyph unicode="J" horiz-adv-x="774" d="M516 198q0 -322 -98 -481t-292 -159q-78 0 -142 35t-68 107q0 36 18 57t48 27q30 4 56 -18t26 -54q0 -38 22 -64t88 -26q122 0 165 106t43 336v1198q0 64 -9 102t-31 58q-22 22 -60 28t-96 8v52q38 -4 109 -4h151q78 0 151 1t113 3v-52q-58 -2 -95 -8t-59 -26 q-24 -20 -32 -59t-8 -103v-1064z" />
<glyph unicode="K" horiz-adv-x="1490" d="M1206 142q22 -30 54 -46t64 -22q34 -8 63 -8h47v-48q-28 0 -68 1t-82 1t-82 -1t-66 -1l-574 796l-168 -162v-372q0 -136 37 -175t137 -39v-50q-40 0 -108 1t-142 1h-145t-109 -2v50q58 0 96 8t60 32q22 22 31 64t9 110v980q0 64 -9 102t-31 60q-22 20 -60 27t-96 9v52 q38 -2 107 -3t143 -1t141 1t103 3v-52q-48 -2 -80 -9t-50 -27q-20 -22 -27 -60t-7 -102v-534l578 560l24 24t30 34q16 16 27 34t11 30q0 32 -36 41t-84 9v52q36 -2 91 -4t115 -2h112t88 4v-50q-36 0 -69 -9t-73 -35q-40 -24 -93 -69t-125 -115l-346 -336z" />
<glyph unicode="L" horiz-adv-x="1254" d="M1126 16q-100 2 -237 4t-281 2q-146 0 -284 -2t-238 -4v48q60 0 98 9t58 33q22 24 30 67t8 113v976q0 64 -9 103t-31 59t-60 26t-94 8v52q36 -4 108 -5t150 -1t151 1t115 5v-52q-60 -2 -98 -8t-60 -28q-22 -20 -30 -58t-8 -102v-976q0 -68 14 -109t54 -63t115 -29t195 -7 q88 0 148 10t102 40q40 30 68 81t52 133h44z" />
<glyph unicode="M" horiz-adv-x="2088" d="M1048 202l600 1306q24 -4 67 -5t89 -1q48 0 90 2t66 6v-52q-108 0 -149 -44t-41 -138l22 -990q2 -66 12 -109t36 -67q24 -24 70 -34t122 -10v-50h-130h-170h-168h-124v50q66 0 109 9t67 33t34 67t10 111l-14 1048l-612 -1332h-30l-602 1294l-20 -1016q0 -116 32 -163 t134 -51v-50q-48 0 -112 1t-132 1h-132t-114 -2v50q66 2 113 10t77 30q30 24 45 66t19 114l26 988q0 100 -48 142t-142 42v52q32 -4 73 -5t81 -1t76 1t58 5z" />
<glyph unicode="N" horiz-adv-x="1730" d="M1488 -6h-46l-1072 1310v-1022q0 -74 9 -117t33 -65t62 -28t96 -6v-50q-52 0 -117 1t-131 1h-132t-114 -2v50q62 0 106 7t70 29q28 22 40 64t12 114v974q0 118 -64 161t-200 43v50q24 -4 66 -4h88t87 1t63 3l1078 -1288v1036q0 62 -9 101t-31 61t-62 30t-102 10v52 q38 -2 104 -3t134 -1q70 0 134 1t100 3v-52q-66 0 -105 -7t-61 -29t-29 -61t-7 -105v-1262z" />
<glyph unicode="O" horiz-adv-x="1730" d="M1598 770q0 -148 -54 -290t-152 -252q-96 -112 -232 -179t-298 -67q-150 0 -283 62t-231 168q-100 106 -157 246t-57 296q0 148 53 289t149 253q98 110 233 178t299 68q148 0 281 -63t233 -169q98 -106 157 -246t59 -294zM1438 710q0 122 -36 258t-110 250 q-72 114 -185 188t-265 74q-124 0 -225 -50t-175 -138q-72 -88 -112 -210t-40 -266q0 -124 36 -260t108 -250q74 -114 186 -187t266 -73q132 0 235 49t173 137t107 210t37 268z" />
<glyph unicode="P" horiz-adv-x="1134" d="M394 284q0 -72 8 -114t30 -66q22 -22 60 -30t98 -8v-50q-56 0 -124 1t-140 1h-139t-123 -2v50q58 0 96 8t60 30q22 24 31 66t9 114v982q0 62 -8 99t-28 59q-20 20 -57 27t-97 7v50q44 -2 110 -3t136 1q70 0 136 1t110 3q222 0 360 -115t138 -309q0 -98 -35 -176t-93 -132 q-58 -56 -134 -88t-160 -34q-28 -2 -59 -3t-63 -1q-34 0 -65 1t-57 1v-370zM394 732q52 -6 110 -8t106 0q138 4 222 96t84 252q0 94 -33 164t-87 116q-54 48 -125 71t-145 23q-24 0 -70 -5t-62 -7v-702z" />
<glyph unicode="Q" horiz-adv-x="1730" d="M996 -4q90 -136 252 -190t396 -36v-46q-120 -24 -240 -22t-226 30q-108 32 -197 94t-149 160q-146 6 -273 70t-221 168q-96 106 -150 242t-54 288q0 148 53 289t149 253q98 110 233 178t299 68q148 0 281 -63t233 -169q98 -106 157 -246t59 -294q0 -132 -43 -260 t-123 -234q-78 -106 -189 -180t-247 -100zM1438 710q0 122 -36 258t-110 250q-72 114 -185 188t-265 74q-124 0 -225 -50t-175 -138q-72 -88 -112 -210t-40 -266q0 -124 36 -260t108 -250q74 -114 186 -187t266 -73q132 0 235 49t173 137t107 210t37 268z" />
<glyph unicode="R" horiz-adv-x="1490" d="M414 724v-442q0 -66 7 -107t27 -65q22 -24 60 -34t102 -10v-50q-40 2 -112 3t-150 1t-151 -1t-111 -3v48q58 0 95 7t59 29q22 24 31 67t9 115v980q0 62 -9 100t-31 60q-22 20 -60 27t-94 9v52q50 -2 126 -3t158 -1t160 1t132 3q136 0 225 -39t141 -95q50 -58 71 -123 t21 -119q0 -72 -25 -133t-67 -109q-42 -50 -96 -84t-112 -50q38 -66 89 -143t105 -151q54 -76 105 -143t89 -111q48 -60 106 -102t134 -42v-50q-72 4 -143 4t-135 -4q-58 74 -122 166t-128 186q-66 96 -127 188t-111 168h-268zM414 798q24 -6 74 -7t80 -1q112 0 189 29 t125 77q48 46 69 105t21 119q0 68 -21 128t-67 104t-120 69t-182 25q-46 0 -93 -3t-75 -7v-638z" />
<glyph unicode="S" horiz-adv-x="1040" d="M104 366h56q14 -60 32 -118t50 -102q34 -46 86 -73t136 -27q154 0 252 82t98 206q0 72 -26 127t-68 97q-44 42 -101 76t-119 68q-64 32 -126 72t-114 90q-50 52 -81 117t-31 147q0 106 34 184t94 128q60 52 140 77t172 25q30 0 58 -3t56 -5q28 -4 57 -9t63 -9l34 -276 h-52q-20 120 -70 180t-176 60q-156 0 -233 -83t-77 -197q0 -72 32 -129t82 -103q52 -46 116 -82t130 -68q64 -34 123 -71t105 -83q46 -48 74 -109t28 -139q0 -108 -43 -189t-111 -137q-70 -54 -157 -81t-175 -27q-82 0 -159 16t-141 46z" />
<glyph unicode="T" horiz-adv-x="1370" d="M1308 1234h-54q-2 58 -9 96t-29 60q-24 24 -66 33t-114 9h-284v-1148q0 -68 8 -110t30 -66t60 -33t98 -9v-50q-52 0 -121 1t-141 1h-143t-119 -2v50q114 0 154 42t40 176v1148h-244q-74 0 -121 -9t-77 -31t-47 -60t-31 -98h-54l22 276q130 -6 294 -8t334 -2q172 0 336 2 t296 8z" />
<glyph unicode="U" horiz-adv-x="1490" d="M1458 1458q-52 0 -85 -7t-51 -27q-20 -20 -26 -58t-6 -102v-772q0 -112 -34 -206t-100 -160q-66 -68 -164 -106t-226 -38q-246 0 -389 128t-147 406v742q0 64 -9 103t-33 59q-22 22 -60 29t-94 9v52q38 -2 109 -3t151 -1q78 0 151 1t115 3v-52q-60 -2 -98 -9t-60 -29 q-22 -20 -31 -59t-9 -103v-686q0 -262 111 -384t349 -122q88 0 162 30t128 86t84 135t30 175v766q0 66 -7 105t-25 59q-20 20 -55 26t-93 8v54q32 -2 91 -3t121 -1q60 0 116 1t84 3v-52z" />
<glyph unicode="V" horiz-adv-x="1492" d="M266 1242q-26 66 -48 108t-48 66t-61 33t-89 9v52q38 -4 106 -4h142t143 1t109 3v-54q-62 -2 -95 -10t-45 -30q-10 -24 -1 -64t35 -106l394 -1056l402 1076q22 62 27 99t-7 57q-14 20 -47 26t-87 8v54q38 -2 91 -4t107 -2h102t76 4v-50q-40 0 -67 -8t-47 -28 q-22 -22 -41 -62t-43 -104l-482 -1274h-32z" />
<glyph unicode="W" horiz-adv-x="2088" d="M804 -18h-34l-534 1304q-20 44 -36 77t-38 53q-24 22 -59 32t-91 10v52q34 -4 100 -4h138q70 0 134 1t96 3v-52q-94 0 -118 -32t18 -140l442 -1110l262 564l-232 542q-42 96 -82 136t-142 40v52q38 -4 102 -5t132 -1q66 0 124 1t86 5v-52q-86 0 -104 -32t30 -146 l158 -382l174 372q48 110 30 149t-134 39v52q30 -4 81 -4h107q54 0 102 1t72 3v-52q-42 0 -71 -17t-49 -43q-22 -26 -38 -59t-30 -63l-210 -458l258 -626l398 1066q46 128 22 163t-128 37v52q30 -4 78 -4h98q52 0 95 1t65 3v-52q-40 0 -62 -11t-38 -35q-18 -22 -31 -60 t-33 -92l-472 -1278h-34l-288 678z" />
<glyph unicode="X" horiz-adv-x="1612" d="M444 262q-96 -126 -86 -161t146 -35v-50q-96 2 -223 3t-223 -3v50q40 0 76 9t72 31t76 63t92 107l364 472l-410 536q-68 90 -120 132t-140 42v52q50 -4 116 -5t136 -1q68 0 133 2t111 4v-52q-108 -2 -136 -32t38 -116l356 -454l322 422q42 56 54 91t0 55q-12 18 -46 26 t-82 8v52q42 -4 100 -4h120q60 0 118 1t102 3v-52q-58 0 -99 -13t-73 -37q-34 -24 -65 -60t-65 -82l-350 -458l438 -562q72 -96 126 -134t132 -46v-50q-108 4 -238 3t-220 -3v50q96 -6 114 21t-44 105l-390 508z" />
<glyph unicode="Y" horiz-adv-x="1490" d="M842 260q0 -116 39 -155t157 -39v-50q-58 2 -127 3t-139 1t-138 -1t-120 -3v50q114 0 154 37t40 157v474l-422 594q-32 42 -57 68t-51 38q-26 14 -54 18t-64 4v52q44 -4 106 -4h128t131 2t117 4v-52q-86 0 -112 -29t26 -101l362 -502l374 508q50 66 29 96t-135 28v52 q84 -4 176 -4t170 4v-52q-34 -2 -56 -10t-42 -24q-18 -16 -38 -42t-46 -62l-408 -554v-506z" />
<glyph unicode="Z" horiz-adv-x="1490" d="M1338 16q-118 2 -294 4t-360 2q-186 0 -356 -2t-276 -4l1098 1410h-666q-82 0 -132 -13t-82 -39q-32 -28 -51 -71t-37 -103h-58l58 310q128 -6 286 -8t320 -2t316 2t276 8l-1094 -1410h596q126 0 208 13t136 47q54 32 89 86t69 136h52z" />
<glyph unicode="[" horiz-adv-x="748" d="M718 1662v-74h-260q-28 0 -45 -3t-25 -12t-10 -25t-2 -40v-1492q0 -54 13 -72t77 -18h252v-78h-466v1814h466z" />
<glyph unicode="\" horiz-adv-x="2048" d="M532 1506v-46q-56 -2 -96 -9t-61 -28t-23 -58t16 -99l128 -382h442l68 190l-92 240q-14 42 -31 68t-42 43t-60 24t-83 9v48h520v-46q-58 0 -99 -7t-63 -27t-23 -59t21 -103l132 -380h430l106 354q18 52 25 93t-4 69t-44 43t-99 17v46h438v-46q-38 -4 -70 -11t-59 -21 t-47 -39t-32 -65l-136 -440h330v-90h-358l-252 -812h-24l-282 812h-124l-288 -812h-24l-268 812h-380v90h350l-126 384q-16 54 -36 90t-47 57t-64 31t-87 12v48h518zM526 794l184 -560l198 560h-382zM1218 794l198 -572l172 572h-370zM1078 884l-32 88l-30 -88h62z" />
<glyph unicode="]" horiz-adv-x="748" d="M526 -152h-466v78h252q64 0 77 18t13 72v1492q0 50 -13 65t-69 15h-260v74h466v-1814z" />
<glyph unicode="^" horiz-adv-x="1028" d="M932 1338l-418 350l-416 -346l-64 56l442 402h80l438 -404z" />
<glyph unicode="_" horiz-adv-x="1028" d="M0 -288v86h1028v-86h-1028z" />
<glyph unicode="`" horiz-adv-x="444" d="M368 1262l-40 -22l-244 326q-16 26 -12 56t28 46q32 20 65 8t43 -40z" />
<glyph unicode="a" horiz-adv-x="1030" d="M654 504q-220 -66 -329 -123t-109 -145q0 -92 47 -125t131 -33q74 0 142 40t118 94v292zM956 92q-44 -42 -93 -76t-99 -34q-48 0 -77 44t-33 128q-74 -78 -164 -125t-188 -47q-90 0 -152 59t-58 149q2 74 45 127t119 93q74 40 176 74t222 72v138q0 88 -41 145t-159 57 q-84 0 -149 -49t-67 -119q0 -48 -19 -70t-47 -22q-24 0 -37 20t-13 52q0 54 51 104t165 110q66 36 109 52t91 16q96 0 167 -58t71 -168v-546q0 -112 49 -128t125 36z" />
<glyph unicode="b" horiz-adv-x="1150" d="M348 1636q-6 -54 -8 -115t-2 -109v-606q32 30 75 62t89 60t93 46t87 18q84 0 154 -38t118 -100q50 -62 77 -143t27 -167q0 -114 -37 -216t-101 -180q-66 -76 -155 -121t-195 -45q-96 0 -178 29t-126 55l-48 -56l-36 16q14 94 24 191t10 195v924q0 52 -5 83t-21 49 q-14 16 -41 20t-69 4v40q64 12 125 37t107 67h36zM338 254q0 -94 58 -153t184 -59q94 0 162 37t110 95q44 60 64 133t20 147q0 188 -83 312t-225 124q-74 0 -155 -50t-135 -106v-480z" />
<glyph unicode="c" horiz-adv-x="950" d="M888 204q-80 -96 -183 -159t-217 -63q-80 0 -153 38t-129 102q-56 62 -89 144t-33 168q0 116 38 218t108 178q68 74 161 118t203 44q38 0 84 -8t86 -26q40 -16 67 -44t27 -68q0 -36 -15 -60t-35 -24q-18 0 -39 15t-49 63q-20 36 -68 62t-138 26q-78 0 -137 -39t-97 -99 q-38 -58 -57 -128t-19 -130q0 -84 21 -162t67 -136q46 -60 116 -95t166 -35q92 0 166 38t122 84z" />
<glyph unicode="d" horiz-adv-x="1150" d="M826 728q0 58 -26 97t-62 61q-38 22 -82 32t-82 10q-64 0 -127 -27t-111 -81q-50 -54 -80 -135t-30 -189q0 -176 91 -290t255 -114q26 0 70 11t84 31t70 46t30 56v492zM826 1336q0 52 -5 83t-21 49q-14 16 -41 20t-69 4v40q64 12 125 37t107 67h36q-6 -54 -8 -115 t-2 -109v-1214q0 -68 35 -81t107 -9v-40q-38 -12 -109 -40t-131 -54q-12 -6 -18 -1t-6 17v150q-82 -78 -169 -117t-171 -39q-88 0 -161 39t-125 105q-52 64 -80 149t-28 175q0 108 40 206t110 172q68 74 160 118t196 44q48 0 101 -11t127 -45v400z" />
<glyph unicode="e" horiz-adv-x="910" d="M204 608q-6 -30 -6 -64t4 -88q10 -152 94 -255t230 -103q100 0 173 39t121 97l28 -18q-56 -100 -151 -167t-213 -67q-86 0 -159 36t-127 100t-85 150t-31 188q0 126 32 226t86 168q56 70 131 106t161 36q60 0 120 -20t108 -60q48 -42 78 -105t32 -149q0 -24 -6 -35 t-30 -15h-590zM632 672q36 0 52 11t16 41q0 32 -15 68t-41 66q-28 30 -68 50t-92 20q-114 0 -183 -71t-91 -185h422z" />
<glyph unicode="f" horiz-adv-x="672" d="M638 936v-88h-272v-646q0 -88 46 -112t152 -24v-50q-52 2 -117 3t-133 1q-66 0 -130 -1t-112 -3v50q90 0 131 32t41 108v642h-152v40q52 6 102 33t50 97q0 54 10 122t32 136q20 66 51 127t73 101q78 80 147 112t93 32q46 0 72 -21t26 -63q0 -36 -29 -54t-51 -18 q-16 0 -26 3t-24 7q-12 4 -32 8t-52 4q-46 0 -77 -26t-53 -64q-20 -38 -29 -80t-9 -74v-334h272z" />
<glyph unicode="g" horiz-adv-x="1030" d="M974 842l-210 8q20 -24 37 -78t17 -92q0 -158 -103 -243t-271 -85q-24 0 -53 1t-59 9q-24 -18 -41 -31t-27 -25q-12 -12 -16 -26t-4 -32q0 -12 2 -31t18 -37t50 -31t98 -13q38 0 75 -1t71 -1h68h66q126 0 206 -56t80 -178q0 -74 -42 -141t-116 -119q-72 -52 -172 -83 t-214 -31q-96 0 -168 24t-120 60t-71 80t-23 90q0 104 73 168t161 90q-108 24 -143 94t-13 146q42 24 86 55t62 49q-74 38 -127 105t-53 177q0 140 97 234t283 94q42 0 92 -9t90 -19q42 -16 92 -27t122 -11q14 0 24 -1t20 1q10 0 22 1t34 5v-90zM160 -190q0 -108 92 -163 t214 -55q82 0 155 18t129 50q54 32 86 76t32 100q0 50 -27 85t-71 55q-46 22 -105 31t-125 9q-186 0 -283 -57t-97 -149zM236 686q0 -114 56 -198t168 -84q128 0 181 76t53 178q0 48 -14 99t-42 91t-74 66t-110 26q-58 0 -100 -24t-68 -60q-26 -38 -38 -83t-12 -87z" />
<glyph unicode="h" horiz-adv-x="1150" d="M202 1336q0 52 -5 83t-19 49q-14 16 -41 20t-69 4v40q64 12 125 37t107 67h36q-6 -54 -8 -115t-2 -109v-640q30 34 69 72t83 72q46 32 97 54t105 22q124 0 194 -92t70 -230v-448q0 -46 3 -76t17 -48t44 -25t82 -7v-50h-53t-49 2q-24 0 -50 1t-56 1t-55 -1t-49 -1t-49 -1 t-53 -1v50q44 0 73 4t45 20t22 47t6 85v324q0 98 -11 161t-37 101q-24 38 -65 53t-101 15q-74 0 -154 -55t-128 -121v-478q0 -94 25 -125t121 -31v-50h-54t-48 2q-24 0 -49 1t-53 1q-30 0 -55 -1t-49 -1q-26 0 -51 -1t-53 -1v50q90 0 116 30t26 126v1114z" />
<glyph unicode="i" horiz-adv-x="552" d="M338 200q0 -86 28 -110t116 -24v-50h-52t-48 2q-24 0 -49 1t-53 1q-30 0 -55 -1t-49 -1q-26 0 -51 -1t-53 -1v50q88 0 116 24t28 110v490q0 54 -4 86t-16 50t-36 24t-66 6v42q64 10 117 30t99 62h36q-6 -54 -7 -115t-1 -109v-566zM174 1428q0 40 29 70t69 30t70 -30 t30 -70t-30 -69t-70 -29t-69 29t-29 69z" />
<glyph unicode="j" horiz-adv-x="552" d="M216 690q0 54 -4 86t-16 50t-36 24t-66 6v42q64 10 117 30t99 62h36q-6 -54 -7 -115t-1 -109v-814q0 -100 -24 -171t-64 -117q-40 -50 -93 -79t-111 -47l-14 36q108 54 146 134t38 222v760zM178 1428q0 40 29 70t69 30t70 -30t30 -70t-30 -69t-70 -29t-69 29t-29 69z" />
<glyph unicode="k" horiz-adv-x="1150" d="M658 762q92 78 90 113t-94 33v54q28 -4 81 -5t111 -1t109 1t77 5v-54q-42 0 -75 -10t-63 -26q-32 -16 -61 -37t-59 -45l-286 -236l360 -394q62 -68 120 -82t122 -16v-46q-24 0 -60 1t-76 1q-38 0 -75 -1t-57 -1q-10 10 -19 21t-19 21q-8 10 -18 21t-18 23l-342 384 l-80 -66v-200q0 -102 28 -128t118 -26v-50q-32 2 -89 3t-117 1q-62 0 -119 -1t-87 -3v50q88 0 115 26t27 128v1116q0 52 -5 83t-19 49q-14 16 -41 20t-69 4v40q64 12 125 37t107 67h36q-6 -54 -8 -115t-2 -109v-928z" />
<glyph unicode="l" horiz-adv-x="552" d="M216 1336q0 52 -5 83t-21 49q-14 16 -41 20t-69 4v40q64 12 125 37t107 67h36q-6 -54 -8 -115t-2 -109v-1192q0 -84 28 -119t116 -35v-50q-44 0 -99 1t-109 1h-109t-93 -2v50q90 0 117 31t27 123v1116z" />
<glyph unicode="m" horiz-adv-x="1728" d="M334 990q-6 -54 -7 -108t-1 -78q42 30 89 64t95 60q50 28 100 46t100 18q72 0 129 -41t85 -143q84 66 182 125t198 59q60 0 103 -25t71 -67t42 -97t14 -113v-476q0 -84 27 -116t111 -32v-50q-82 2 -197 3t-203 -3v50q86 0 113 32t27 116v402q0 54 -6 103t-26 85t-59 58 t-107 22q-38 0 -79 -15t-81 -37q-38 -20 -71 -44t-53 -40v-534q0 -84 29 -116t117 -32v-50q-44 0 -97 1t-107 1h-109t-95 -2v50q84 0 111 32t27 116v402q0 54 -5 103t-25 85t-58 58t-106 22q-30 0 -67 -13t-77 -33q-40 -22 -77 -47t-65 -51v-526q0 -84 27 -116t113 -32v-50 q-86 2 -203 3t-207 -3v50q90 0 118 32t28 116v476q0 54 -3 86t-15 50t-36 24t-66 6v42q64 10 117 30t97 62h38v0z" />
<glyph unicode="n" horiz-adv-x="1150" d="M334 990q-6 -54 -7 -106t-1 -78q90 66 194 126t200 60q120 0 172 -87t52 -211v-474q0 -84 28 -119t118 -35v-50h-53t-49 2q-24 0 -49 1t-53 1q-30 0 -55 -1t-49 -1t-49 -1t-53 -1v50q86 0 114 35t28 119v476q0 100 -46 144t-152 44q-30 -2 -70 -15t-80 -31 q-42 -20 -81 -44t-67 -48v-526q0 -84 28 -119t118 -35v-50h-54t-48 2q-24 0 -49 1t-53 1q-30 0 -55 -1t-49 -1q-26 0 -51 -1t-53 -1v50q88 0 115 35t27 119v470q0 54 -3 86t-15 50t-36 24t-66 6v42q64 10 117 30t97 62h38v0z" />
<glyph unicode="o" horiz-adv-x="1150" d="M1058 492q0 -106 -38 -199t-102 -161q-64 -70 -149 -110t-181 -40q-100 0 -190 34t-158 100q-68 64 -108 157t-40 209q0 104 35 197t97 163q64 68 150 109t188 41q104 0 195 -35t157 -101q66 -64 105 -157t39 -207zM910 470q0 74 -18 157t-58 151q-42 70 -107 115 t-159 45q-90 0 -153 -40t-101 -102q-38 -64 -55 -141t-17 -151q0 -70 18 -151t58 -151t105 -117t161 -47q90 0 152 40t100 104q40 62 57 139t17 149z" />
<glyph unicode="p" horiz-adv-x="1150" d="M346 990q-6 -54 -7 -103t-1 -65q30 26 73 56t91 56q46 24 95 41t91 17q80 0 148 -39t118 -103q48 -64 76 -146t28 -166q0 -112 -38 -213t-104 -177q-68 -78 -161 -122t-203 -44q-40 0 -98 12t-116 54v-316q0 -44 6 -74t28 -48q20 -18 59 -26t105 -8v-50q-36 4 -105 5 t-145 1q-74 0 -142 -1t-100 -5v50q106 0 139 30t33 122v962q0 54 -4 86t-16 50t-36 24t-66 6v42q64 10 117 30t99 62h36zM338 204q10 -20 29 -47t49 -53q30 -24 73 -41t103 -17q86 0 151 39t107 99q44 62 65 136t21 146q0 86 -19 163t-57 137q-38 58 -98 92t-140 34 q-32 0 -73 -15t-81 -35q-40 -22 -75 -45t-55 -41v-552z" />
<glyph unicode="q" horiz-adv-x="1150" d="M834 120q-78 -68 -167 -103t-165 -35q-94 0 -169 36t-129 98t-83 144t-29 172q0 120 44 222t116 178q72 74 161 117t179 43q60 0 124 -20t138 -62l74 94h34q-4 -60 -5 -116t-1 -96v-1066q0 -84 25 -117t117 -33v-48q-46 4 -104 4h-118t-115 -1t-91 -5v50q100 0 132 31 t32 121v392zM834 734q0 24 -18 57t-52 63t-83 52t-111 22q-46 0 -106 -20t-112 -70q-54 -48 -91 -131t-37 -207q0 -86 21 -161t65 -131q46 -54 115 -86t167 -32q56 0 123 20t119 52v572z" />
<glyph unicode="r" horiz-adv-x="790" d="M338 772q30 40 68 79t76 71q40 30 78 49t72 19q48 0 84 -25t36 -69q0 -48 -29 -73t-55 -25q-24 0 -38 7t-28 17t-31 18t-45 8q-18 0 -50 -18t-62 -46q-32 -28 -54 -65t-22 -75v-424q0 -48 7 -79t31 -47t68 -22t118 -6v-50q-46 2 -114 3t-140 1t-140 -1t-114 -3v50 q102 0 132 26t30 128v470q0 54 -4 86t-16 50t-36 24t-66 6v42q64 10 117 30t99 62h36q-6 -54 -7 -112t-1 -106z" />
<glyph unicode="s" horiz-adv-x="790" d="M140 302q6 -42 19 -88t39 -84t69 -62t111 -24q114 0 157 49t43 109q0 46 -19 79t-49 59t-70 47t-82 43q-102 54 -176 123t-74 171q0 52 22 100t62 86q40 36 97 59t129 23q48 0 107 -13t113 -43l16 -220h-42q-14 102 -64 157t-152 55q-78 0 -136 -39t-58 -105 q0 -48 22 -83t58 -63q36 -26 82 -48t94 -42q46 -22 90 -46t78 -58q32 -32 53 -75t21 -99q0 -54 -20 -106t-62 -92q-42 -42 -106 -66t-150 -24q-60 0 -128 18t-116 48l-24 254h46z" />
<glyph unicode="t" horiz-adv-x="672" d="M308 278q0 -116 34 -158t92 -42q18 0 45 6t53 16q28 10 50 20t34 20l18 -28q-58 -60 -122 -95t-140 -35q-88 0 -138 50t-50 146v670h-140v38q100 28 150 98t72 196h42v-244h320v-88h-320v-570z" />
<glyph unicode="u" horiz-adv-x="1150" d="M820 176q-96 -78 -200 -136t-204 -58q-38 0 -76 13t-70 45q-30 30 -49 78t-19 118v552q0 68 -26 91t-102 27v38q28 0 56 2t60 4t66 5t76 7q-4 -40 -5 -92t-1 -82v-444q0 -156 41 -206t131 -50q76 0 165 40t159 106v554q0 68 -38 91t-112 27v38q28 0 60 2t66 4t72 5t80 7 q-4 -40 -5 -92t-1 -82v-622q0 -64 31 -77t109 -7v-38q-20 -4 -49 -11t-61 -17q-34 -8 -67 -17t-63 -17q-12 -4 -18 0t-6 16v178z" />
<glyph unicode="v" horiz-adv-x="1030" d="M206 740q-24 60 -41 94t-35 50q-16 16 -37 20t-49 4v54q26 -4 79 -5t111 -1q60 0 114 1t84 5v-54q-98 0 -119 -30t21 -138l206 -556l226 558q42 104 31 134t-111 30v56q72 -6 162 -5t140 5v-54q-60 0 -90 -32t-70 -134l-308 -760h-22z" />
<glyph unicode="w" horiz-adv-x="1628" d="M194 740q-32 100 -68 134t-96 34v54q28 -4 79 -4h107q54 0 107 1t87 3v-54q-76 0 -100 -28t-4 -94l238 -618l226 580q14 58 -17 106t-125 52v56q88 -6 201 -5t197 5v-56q-86 -4 -107 -34t3 -114l222 -590l234 594q36 82 13 113t-115 33v54q80 -6 163 -5t159 5v-54 q-72 0 -105 -42t-61 -114l-306 -766h-28l-282 726l-290 -726h-28z" />
<glyph unicode="x" horiz-adv-x="1150" d="M332 150q-40 -50 -28 -67t98 -17v-50q-82 4 -179 4t-179 -4v50q76 0 127 17t115 95l244 286l-274 348q-36 42 -79 67t-95 27v56q90 -4 197 -4t205 4v-54q-74 0 -97 -22t17 -76l202 -256l216 252q36 52 18 77t-84 25v54q86 -6 173 -5t179 5v-54q-76 0 -128 -26t-100 -86 l-242 -284l280 -352q40 -54 78 -74t112 -20v-50h-59t-53 2q-26 0 -52 1t-56 1t-54 -1t-48 -1t-49 -1t-53 -1v50q82 0 105 20t-13 66l-212 270z" />
<glyph unicode="y" horiz-adv-x="1030" d="M472 80q-24 58 -66 162t-86 214q-46 110 -85 208t-55 146q-18 50 -50 75t-92 25v52q30 -4 87 -4h117t113 1t77 3v-56q-78 -4 -104 -29t-8 -81l216 -558l228 546q24 62 2 93t-88 31v54q24 -4 68 -5t92 -1t90 1t64 5v-54q-70 0 -102 -32t-62 -108l-486 -1136 q-26 -60 -71 -80t-93 -20q-34 0 -65 20t-31 64t32 60t62 12q8 0 18 -5t20 -11q10 -4 20 -9t18 -7q18 0 32 7t24 27l164 390v0z" />
<glyph unicode="z" horiz-adv-x="910" d="M544 78q54 0 93 7t69 29q28 22 52 63t48 109h46l-64 -270q-170 4 -370 4t-368 -4v20l588 860h-244q-40 0 -78 -3t-70 -17q-34 -16 -60 -48t-44 -92h-44l28 228q70 -4 158 -6t182 -2q92 0 184 1t172 5l-600 -884h322z" />
<glyph unicode="{" horiz-adv-x="748" d="M534 1008q0 -110 -41 -165t-115 -83q42 -20 71 -42t48 -52t28 -71t9 -97v-436q0 -54 9 -92t32 -64t61 -39t96 -17v-36q-88 0 -147 15t-96 49t-53 92t-16 142v406q0 186 -174 230v22q84 18 128 75t44 147v444q0 142 82 202t238 60l-2 -40q-112 -2 -157 -48t-45 -154v-448z " />
<glyph unicode="|" horiz-adv-x="1028" d="M458 -102v1748h118v-1748h-118z" />
<glyph unicode="}" horiz-adv-x="748" d="M242 498q0 56 9 97t28 71t48 52t71 42q-72 28 -114 83t-42 165v448q0 108 -45 154t-157 48l-2 40q156 0 238 -60t82 -202v-444q0 -90 44 -147t128 -75v-22q-174 -44 -174 -230v-406q0 -84 -16 -142t-53 -92t-96 -49t-145 -15v36q114 8 155 56t41 156v436z" />
<glyph unicode="~" horiz-adv-x="1474" d="M1332 890q-18 -68 -45 -125t-67 -99t-94 -66t-124 -24q-82 0 -153 40t-132 89t-116 89t-105 40q-90 0 -166 -64t-146 -184l-40 18q24 62 58 120t78 102t100 71t124 29q76 0 145 -40t134 -87t124 -87t113 -40q90 4 162 64t108 176z" />
<glyph horiz-adv-x="824" d="M532 590h-240v226h240v-226z" />
<glyph horiz-adv-x="902" d="M132 506v94h636v-94h-636z" />
<glyph d="M-16 -204h1978v-52h-1978v52z" />
<glyph unicode="&#xa1;" d="M1084 78q0 -34 -6 -67t-19 -60t-33 -44t-48 -17t-49 17t-34 44t-19 61t-6 70q0 96 15 198t25 204q8 102 13 211t8 199t4 151t1 67h74v-67t3 -151t9 -197t18 -209t28 -207t16 -203zM1098 1444q0 -48 -36 -84t-88 -36t-88 35t-36 85q0 52 36 86t88 34q54 0 89 -34t35 -86z " />
<glyph unicode="&#xa4;" d="M1746 1512l68 -70l-284 -236q72 -84 112 -192t40 -234q0 -128 -42 -240t-118 -200l288 -260l-64 -64l-282 258q-94 -92 -219 -145t-271 -53q-144 0 -268 50t-214 140l-290 -256l-64 70l288 258q-76 88 -118 201t-42 241q0 124 38 231t108 191l-268 238l64 72l264 -234 q94 96 223 152t279 56t279 -56t223 -154zM1604 780q0 130 -50 245t-135 200t-200 135t-245 50q-132 0 -246 -50t-199 -135t-134 -200t-49 -245t49 -244t134 -199t199 -134t246 -49q130 0 245 49t200 134t135 199t50 244z" />
<glyph unicode="&#xa7;" d="M1056 1028q48 -50 95 -101t81 -104t53 -109t13 -116q-8 -78 -64 -116t-130 -48q8 -8 42 -53t62 -115t34 -159t-42 -185q-38 -72 -100 -107t-131 -36t-138 30t-119 89q-34 42 -41 81t3 67q16 28 42 38t60 -6q40 -22 43 -58t-1 -76v-18q6 -16 18 -16q4 -10 30 -26t62 -22 t77 7t77 59q32 42 38 100t-11 119t-55 121t-90 106q-66 56 -133 120t-115 133t-66 143t18 150q14 34 42 55t58 34t59 18t47 7q-16 18 -43 53t-55 79t-50 95t-26 103q-6 80 11 141t52 101t86 61t111 23q82 4 145 -29t97 -79q34 -42 40 -89t-32 -71q-34 -22 -60 -14t-44 31 t-25 55t-1 58q4 20 -6 35t-30 25t-46 14t-54 2q-56 -8 -102 -52t-48 -140q0 -46 16 -88t40 -81t54 -74t58 -65q22 -24 47 -49t47 -51zM1102 490q58 10 79 43t18 74t-23 85t-46 78q-56 80 -122 132t-118 60q-68 12 -102 -15t-40 -73t14 -102t60 -100q88 -108 160 -150 t120 -32z" />
<glyph unicode="&#xa8;" d="M1286 1778q52 0 93 -40t41 -94q0 -26 -12 -50t-31 -42t-43 -29t-50 -11q-54 0 -92 42t-38 94q0 26 11 50t29 42t42 28t50 10zM674 1778q52 0 92 -40t40 -94q0 -26 -11 -50t-30 -42t-43 -29t-50 -11q-56 0 -95 42t-39 94t42 91t94 39z" />
<glyph unicode="&#xa9;" d="M974 12q148 0 277 54t225 150t152 229t56 291t-56 287t-152 221t-225 143t-277 51t-278 -51t-226 -143t-151 -221t-55 -287t55 -291t151 -229t226 -150t278 -54zM974 1516q162 0 306 -57t251 -161t169 -247t62 -315q0 -174 -62 -321t-169 -254t-251 -167t-306 -60 t-306 60t-252 167t-170 254t-62 321q0 172 62 315t170 247t252 161t306 57zM1354 962h-40q-18 116 -84 171t-190 55q-180 0 -288 -120q-54 -58 -85 -137t-31 -175q0 -108 34 -193t92 -149q118 -124 300 -124q114 0 172 66t76 168h50l-36 -230q-22 -14 -56 -25t-78 -21 q-40 -10 -80 -15t-76 -5q-112 0 -205 36t-163 108v-2q-70 70 -106 166t-36 216q0 108 43 200t115 158q72 64 162 101t188 37q80 0 158 -20t152 -50z" />
<glyph unicode="&#xaa;" d="M282 80h1382v-58h-1382v58zM1154 1012q-96 -22 -172 -47t-122 -45q-50 -20 -94 -49t-74 -67t-44 -82t-4 -94q16 -86 79 -124t153 -26q46 6 102 29t108 57q36 22 52 65t16 79v304zM1156 556q-74 -92 -176 -128t-222 -36q-50 0 -93 16t-76 42t-54 61t-25 71q-8 56 4 104 t37 87t59 69t74 52q82 48 201 91t269 77v108q0 100 -53 161t-183 61q-34 0 -87 -13t-93 -39q-16 -12 -27 -35t-5 -41q6 -24 4 -51t-14 -48t-34 -33t-54 -8q-30 4 -43 28t-9 57t28 72t70 75q46 40 124 62t166 22q108 0 183 -36t113 -100q22 -34 32 -97t10 -121v-482 q0 -96 34 -118t116 48l26 -36q-28 -34 -70 -66t-102 -32t-96 39t-34 117z" />
<glyph unicode="&#xab;" d="M1516 -124l-46 -60l-1224 924l1224 924l46 -60l-1132 -864zM1698 24l-46 -66l-1024 782l1024 780l48 -62l-932 -718z" />
<glyph unicode="&#xad;" d="M654 506v94h636v-94h-636z" />
<glyph unicode="&#xae;" d="M974 12q148 0 277 54t225 150t152 229t56 291t-56 287t-152 221t-225 143t-277 51t-278 -51t-226 -143t-151 -221t-55 -287t55 -291t151 -229t226 -150t278 -54zM974 1516q162 0 306 -57t251 -161t169 -247t62 -315q0 -174 -62 -321t-169 -254t-251 -167t-306 -60 t-306 60t-252 167t-170 254t-62 321q0 172 62 315t170 247t252 161t306 57zM814 800q0 -18 5 -22t31 -4h88q116 0 174 52q64 48 64 148q0 98 -44 154q-52 56 -172 56h-104q-28 0 -35 -8t-7 -36v-340zM1410 258h-158q-10 0 -20 2t-24 26q-16 42 -40 97t-52 111 q-26 58 -50 110t-46 88q-10 16 -24 28t-50 12h-100q-22 0 -27 -9t-5 -25v-280q0 -34 3 -56t13 -34q22 -22 90 -22v-48h-300v48q62 0 90 22q10 10 12 32t2 58v654q0 36 -2 58t-12 34q-14 10 -33 13t-57 3v48h402q58 0 103 -18t75 -48q70 -70 70 -176q0 -84 -52 -148 q-56 -68 -148 -86q16 -14 34 -35t42 -61l134 -250q30 -62 56 -78q28 -20 74 -20v-50z" />
<glyph unicode="&#xb0;" d="M462 1672q48 0 91 -19t75 -51t51 -75t19 -91t-19 -91t-51 -75t-75 -51t-91 -19t-91 19t-75 51t-51 75t-19 91t19 91t51 75t75 51t91 19zM462 1292q60 0 102 42t42 102t-42 102t-102 42t-102 -42t-42 -102t42 -102t102 -42z" />
<glyph unicode="&#xb1;" d="M1026 268h-106v528h-560v102h560v506h106v-506h542v-102h-542v-528zM360 106h1208v-98h-1208v98z" />
<glyph unicode="&#xb2;" d="M38 1136q30 30 65 67t67 72t58 65t40 48q30 38 58 86t28 92q0 42 -25 80t-91 38q-48 0 -82 -39t-58 -101l-60 10q8 36 25 70t44 61t64 43t85 16q82 0 136 -50t54 -124q0 -52 -32 -106t-60 -90q-48 -58 -97 -114t-93 -100h166q20 0 33 2t22 8t18 19t23 35h60l-52 -122 h-396v34z" />
<glyph unicode="&#xb3;" d="M316 1462q64 -16 101 -58t37 -98q0 -90 -57 -141t-143 -67q-36 -6 -71 -4t-64 10t-47 21t-18 29q0 14 12 28t34 14q28 0 48 -8t34 -18q22 -12 33 -16t27 0q40 2 78 34t40 88q4 80 -43 113t-161 17l2 46q78 16 121 58t43 94q0 40 -22 62t-60 22q-44 0 -74 -28t-52 -72 l-62 2q22 72 76 117t128 45q68 0 117 -38t49 -100q0 -76 -106 -152z" />
<glyph unicode="&#xb4;" d="M1204 1880q22 -26 18 -54t-24 -44q-22 -18 -71 -44t-107 -55t-119 -56t-107 -47q-30 -16 -32 -3t18 31q32 30 78 74t91 86t82 75t51 41q28 18 62 23t60 -27z" />
<glyph unicode="&#xb6;" d="M1454 -206v1844h116v-1844h-116zM1054 -206l-4 990l-164 -2q-116 -2 -209 28t-159 85t-101 135t-35 178q0 190 122 300t350 126q52 4 83 5t61 1t68 -2t104 -2v-1842h-116zM1050 1534h-106q-202 0 -319 -84t-117 -238q0 -74 30 -134t84 -102t127 -62t161 -16l140 4v632z " />
<glyph unicode="&#xb7;" horiz-adv-x="592" d="M288 910q54 0 94 -39t40 -95t-40 -94t-94 -38t-93 38t-39 94t39 95t93 39z" />
<glyph unicode="&#xb8;" d="M1052 -94q48 -34 68 -68t20 -78q0 -40 -20 -78t-54 -66t-78 -45t-94 -17q-20 0 -48 5t-84 27l10 38q34 -8 52 -9t40 -1q52 0 87 31t35 75q0 52 -36 80t-102 30l110 236h172l-78 -160v0z" />
<glyph unicode="&#xb9;" d="M312 1766v-548q0 -46 18 -56t82 -14v-44h-290v46q28 2 48 3t32 7t17 19t5 35v384q0 24 -1 35t-12 13t-33 -6t-64 -26v54z" />
<glyph unicode="&#xba;" d="M966 1456q104 0 191 -41t150 -112t98 -167t35 -206t-35 -207t-98 -169t-150 -113t-191 -41q-106 0 -193 41t-150 112t-97 167t-34 206t34 206t97 168t150 114t193 42zM282 80h1382v-58h-1382v58zM966 460q90 0 155 39t107 103t62 149t20 179q0 92 -21 177t-63 150 t-107 103t-153 38q-90 0 -155 -38t-107 -103t-62 -150t-20 -177q0 -94 21 -179t63 -149t107 -103t153 -39z" />
<glyph unicode="&#xbb;" d="M430 1604l46 60l1224 -924l-1224 -924l-46 60l1132 864zM246 1458l46 62l1026 -780l-1026 -782l-44 66l930 716z" />
<glyph unicode="&#xbc;" d="M1530 632v-586h148v-74h-148v-230h-112v230h-374v60l408 600h78zM1146 46h272v390zM562 1730v-754q0 -34 6 -53t21 -28t41 -11t68 -4v-52h-382v54q36 0 62 2t42 11t24 27t8 52v542q0 32 -3 49t-17 19t-44 -9t-82 -33v60zM152 -114l1582 1744l50 -34l-1582 -1740z" />
<glyph unicode="&#xbd;" d="M152 -114l1582 1744l50 -34l-1582 -1740zM562 1730v-754q0 -34 6 -53t21 -28t41 -11t68 -4v-52h-382v54q36 0 62 2t42 11t24 27t8 52v542q0 32 -3 49t-17 19t-44 -9t-82 -33v60zM1112 -202q42 40 90 90t92 99t81 91t57 68q20 24 41 55t38 63t28 66t11 64t-8 60t-28 54 t-52 40t-80 16q-70 0 -121 -55t-79 -139l-70 12q10 48 33 94t59 82t86 57t114 21q54 0 102 -18t82 -50t54 -75t20 -93q0 -36 -12 -74t-32 -73t-43 -66t-43 -55q-64 -82 -134 -160t-134 -148h248q30 0 48 3t32 12t26 27t30 50h66l-66 -162h-536v44z" />
<glyph unicode="&#xbe;" d="M570 1326q86 -22 139 -79t53 -135q0 -124 -78 -193t-196 -91q-48 -10 -96 -7t-86 14t-61 28t-23 37q0 18 15 35t43 17q34 0 60 -11t48 -25q30 -18 47 -23t41 -3q30 0 60 13t55 37t41 56t18 72q4 114 -64 161t-222 31l2 50q108 22 169 82t61 132q0 60 -33 91t-89 31 q-64 0 -110 -39t-72 -101l-70 2q26 94 99 154t175 60q44 0 84 -13t70 -37t47 -58t17 -76q0 -56 -37 -110t-107 -102zM1530 632v-586h148v-74h-148v-230h-112v230h-374v60l408 600h78zM1146 46h272v390zM184 -114l1584 1744l48 -34l-1578 -1742z" />
<glyph unicode="&#xbf;" d="M1292 404q48 8 84 -32t38 -96q2 -84 -31 -153t-91 -117t-134 -75t-160 -27q-86 0 -161 23t-131 70t-88 118t-32 167q0 44 18 95t48 105t68 108t78 104q92 116 126 231t38 217h62q12 -232 -140 -464q-24 -36 -52 -82t-52 -97t-39 -106t-13 -111q0 -82 22 -143t60 -102 t88 -62t106 -21q62 0 116 18t94 48t62 68t22 78q0 24 -11 40t-25 30t-25 31t-11 45q0 32 21 60t45 32zM1124 1466q0 -48 -35 -84t-87 -36q-54 0 -90 35t-36 85q0 52 36 87t90 35t88 -35t34 -87z" />
<glyph unicode="&#xc6;" d="M956 76q44 0 73 5t46 18t24 36t7 59l2 306h-538l-222 -310q-52 -76 -28 -95t120 -19l-16 -58h-376l16 58q32 0 60 5t54 22t54 47t62 80l778 1118q14 28 18 47t-9 31t-46 17t-93 5l26 64l842 -2l34 -410l-52 2q-20 120 -41 189t-65 104t-122 44t-214 9q-42 0 -63 -2 t-37 -12q-22 -10 -24 -30t-2 -32v-584q126 0 199 4t111 24t48 62t10 120l54 2v-496l-60 -2q0 78 -8 121t-43 63t-108 25t-203 5v-556q0 -26 9 -46t31 -26q172 0 271 8t156 41t88 99t69 180h50l-88 -398h-854v58zM618 570h488v708z" />
<glyph unicode="&#xd0;" d="M488 1256q0 58 -11 97t-38 63t-71 36t-112 16v44h558q146 0 288 -26t240 -74q190 -96 278 -264t88 -382q0 -106 -28 -210t-84 -195t-138 -161t-192 -108q-92 -28 -201 -50t-231 -22h-578v46q68 4 113 12t72 29t37 60t10 107v408h-250v70h250v504zM1134 752v-70h-514v-512 q0 -38 12 -58t33 -29t48 -10t57 -1q138 0 271 18t227 72q70 38 125 100t92 140t57 169t20 191q0 180 -63 332t-181 240q-104 78 -251 104t-305 26q-30 0 -56 -1t-45 -10t-30 -29t-11 -58v-614h514z" />
<glyph unicode="&#xd7;" d="M962 664l-488 -488l-72 70l492 488l-496 492l70 72l498 -494l492 492l68 -70l-492 -490l492 -490l-70 -72z" />
<glyph unicode="&#xd8;" d="M1444 1332q102 -108 159 -258t57 -314q0 -160 -52 -301t-144 -247t-218 -168t-274 -62q-114 0 -222 40t-194 116l-138 -182l-56 48l136 186q-100 108 -156 256t-56 314q0 160 51 302t143 249t218 169t274 62q118 0 224 -40t196 -114l134 180l56 -48q-10 -12 -31 -41 t-44 -59t-41 -56t-22 -32zM1330 1310q-70 78 -158 117t-200 39q-128 0 -228 -55t-170 -150t-107 -224t-37 -277q0 -280 132 -486zM614 216q70 -80 160 -123t198 -43q128 0 230 54t173 150t108 226t37 280q0 144 -35 264t-101 226z" />
<glyph unicode="&#xde;" d="M722 1090v-674h262q80 0 152 22t125 65t84 108t31 153q0 90 -28 152t-80 101t-126 56t-164 17h-256zM894 16h-458v56q52 0 85 8t53 26t27 49t7 77v1086q0 44 -8 70t-28 40t-54 19t-84 5l2 60h458v-60q-94 0 -133 -27t-39 -105v-174h328q216 0 338 -101t122 -277 q0 -90 -31 -166t-88 -131t-137 -86t-180 -31h-352v-132q0 -44 7 -73t26 -47t53 -26t88 -8z" />
<glyph unicode="&#xdf;" d="M1158 816q138 -34 225 -137t87 -265q0 -94 -32 -173t-87 -137t-131 -90t-166 -32q-42 0 -88 10t-91 29t-85 47t-68 64v-58q0 -28 -12 -42t-46 -14h-188v64q48 0 74 3t39 17t15 43t2 81v894q0 90 28 167t78 133t120 88t154 32q82 0 157 -24t133 -71t93 -118t35 -165 q0 -140 -67 -221t-179 -125zM850 848h15h23t22 -1t16 -1q64 -4 119 9t111 59q58 42 83 104t25 144q0 62 -19 117t-55 95t-89 63t-119 23q-58 0 -106 -27t-82 -72t-53 -104t-19 -123v-938q56 -58 141 -101t201 -37q56 2 105 30t85 76t57 113t21 145q0 88 -31 153t-82 109 t-117 65t-138 21q-26 0 -63 -3t-51 -3v84z" />
<glyph unicode="&#xe6;" d="M1514 550q46 0 57 14t11 60q0 60 -16 114t-49 95t-83 66t-118 25q-76 0 -129 -32t-88 -85t-52 -120t-21 -137h488zM830 188q54 68 64 143t10 177q-70 -4 -163 -16t-176 -41t-141 -81t-58 -138q0 -84 56 -129t146 -45q76 0 150 39t112 91zM1700 232q-46 -116 -137 -187 t-247 -71q-128 0 -220 71t-144 193q-14 -28 -23 -43t-19 -29q-32 -42 -76 -77t-96 -61t-110 -40t-114 -14q-54 0 -104 13t-89 42t-63 76t-24 113q0 72 36 126t94 93t130 65t147 42t144 23t119 9v178q0 46 -20 80t-55 55t-83 31t-104 10q-24 0 -52 -4t-55 -13t-50 -23 t-37 -32q-12 -16 -10 -29t9 -24t18 -21t19 -20q4 -6 8 -19t4 -25q-4 -48 -33 -76t-67 -28q-52 0 -77 38t-25 90q0 32 13 63t33 56t45 46t49 33q60 32 127 45t125 11q140 -4 216 -50t108 -134q54 84 132 134t180 50q98 0 169 -41t119 -107t72 -149t28 -167v-22q0 -10 -6 -20 t-22 -10h-658q0 -98 21 -179t63 -138t106 -88t154 -29q52 2 95 22t77 50t60 68t44 76z" />
<glyph unicode="&#xf0;" d="M674 450q0 -98 22 -178t62 -137t97 -88t127 -31q68 0 123 32t94 89t60 137t21 176q0 92 -22 171t-61 138t-95 93t-122 34q-68 0 -124 -33t-97 -92t-63 -139t-22 -172zM732 1554q78 -32 156 -90t142 -118l260 134l58 -68l-258 -134q82 -84 145 -185t107 -208t67 -213 t23 -200q0 -120 -32 -215t-92 -160t-145 -99t-189 -34q-102 0 -186 35t-146 98t-96 153t-34 202q0 102 34 191t94 156t142 105t176 38q32 0 64 -1t65 -7t69 -21t78 -43q-28 98 -87 191t-131 183l-350 -176l-46 70l338 172q-64 66 -133 119t-139 87z" />
<glyph unicode="&#xf7;" d="M978 1410q54 0 94 -40t40 -94q0 -26 -12 -50t-31 -42t-43 -29t-48 -11q-54 0 -94 42t-40 94t42 91t92 39zM362 812h1226v-102h-1226v102zM978 374q54 0 94 -38t40 -92q0 -26 -12 -50t-31 -43t-43 -30t-48 -11q-28 0 -52 12t-42 31t-29 44t-11 51q0 52 42 89t92 37z" />
<glyph unicode="&#xf8;" d="M1322 1098l68 -44l-110 -172q82 -64 129 -162t47 -226q0 -106 -38 -199t-102 -162t-150 -109t-182 -40q-136 0 -246 64l-112 -172l-68 46l112 170q-84 64 -132 164t-48 228q0 104 35 197t98 163t149 110t186 40q70 0 135 -17t119 -49zM1168 858q-78 82 -204 82 q-90 0 -152 -40t-101 -103t-56 -140t-17 -151t22 -162t68 -162zM784 118q38 -36 86 -58t110 -22q90 0 153 41t101 104t55 140t17 149q0 78 -20 164t-66 156z" />
<glyph unicode="&#xfe;" d="M770 -14q0 -54 3 -84t17 -45t43 -18t83 -3v-68h-396v68q50 0 78 3t41 17t15 43t2 81v1044q0 30 -3 49t-18 29t-44 13t-79 3v58l232 20q16 2 21 -8t5 -26v-308q54 64 139 108t181 44q76 0 139 -31t108 -85t70 -124t25 -148v-230q0 -78 -25 -148t-70 -123t-108 -84 t-139 -31q-44 0 -88 3t-85 15t-79 36t-68 66v-136zM770 256q30 -90 111 -128t181 -38q48 0 90 20t75 57t52 90t19 121v248q0 68 -19 122t-52 91t-75 56t-90 19q-40 0 -83 -12t-82 -33t-73 -50t-54 -65v-498z" />
<glyph unicode="&#xff;" d="M1598 770q56 0 84 -34t28 -75t-28 -75t-84 -34q-54 0 -81 34t-27 75t27 75t81 34zM976 770q56 0 83 -34t27 -75t-27 -75t-83 -34q-54 0 -81 34t-27 75t27 75t81 34zM354 770q56 0 82 -34t26 -75t-26 -75t-82 -34t-82 34t-26 75t26 75t82 34z" />
<glyph unicode="&#x152;" d="M282 758q0 -144 32 -268t93 -215t148 -143t199 -52q96 0 141 19t47 77v1156q-2 52 -45 78t-143 26q-112 0 -199 -53t-148 -145t-93 -216t-32 -264zM1436 1060v-562h-62q-10 94 -22 140t-40 62q-10 8 -28 16t-48 15t-74 11t-106 4v-570q-2 -64 27 -80t111 -16q122 0 194 1 t115 7t70 20t61 40q28 20 47 48t31 68t19 94t13 128h66l-28 -468h-1028q-136 -2 -249 57t-195 160t-128 236t-46 287q0 148 43 281t121 235t186 165t238 71h1032l26 -458h-58q-10 74 -20 128t-22 92t-30 65t-44 49q-34 24 -59 37t-65 18t-108 6t-186 1q-70 -2 -103 -23 t-31 -93v-518q210 0 260 42q28 32 38 77t20 127h62z" />
<glyph unicode="&#x153;" d="M1550 542q46 0 57 13t11 61q0 58 -17 115t-50 103t-83 74t-118 28q-76 0 -130 -35t-90 -91t-55 -127t-23 -141h498zM626 46q78 0 134 36t92 97t54 142t18 169q0 90 -18 171t-55 142t-93 97t-132 36q-78 0 -134 -36t-93 -97t-55 -142t-18 -171q0 -88 18 -169t56 -142 t94 -97t132 -36zM1736 244q-52 -118 -141 -188t-241 -70q-124 0 -217 63t-145 171q-60 -108 -153 -171t-213 -63q-94 0 -172 39t-134 108t-87 160t-31 197t31 199t87 163t134 111t172 41q124 0 218 -69t156 -185q52 114 142 184t216 70q98 0 169 -43t117 -112t70 -154 t28 -171v-20q0 -12 -5 -21t-21 -9h-666q2 -198 86 -308t264 -106q54 2 98 22t78 50t61 68t45 74z" />
<glyph unicode="&#x2dc;" d="M1378 1794q10 14 22 4t2 -30t-35 -54t-60 -67t-77 -57t-84 -22q-54 4 -96 25t-78 45q-30 26 -63 49t-69 33q-90 20 -153 -15t-135 -117q-6 -12 -21 -4t-7 24q10 22 38 58t66 70t83 57t89 21q56 -4 99 -27t85 -51q34 -28 70 -53t82 -29q40 -4 78 10t70 35t56 47t38 48z " />
<glyph unicode="&#x2000;" horiz-adv-x="953" />
<glyph unicode="&#x2001;" horiz-adv-x="1907" />
<glyph unicode="&#x2002;" horiz-adv-x="953" />
<glyph unicode="&#x2003;" horiz-adv-x="1907" />
<glyph unicode="&#x2004;" horiz-adv-x="635" />
<glyph unicode="&#x2005;" horiz-adv-x="476" />
<glyph unicode="&#x2006;" horiz-adv-x="317" />
<glyph unicode="&#x2007;" horiz-adv-x="317" />
<glyph unicode="&#x2008;" horiz-adv-x="238" />
<glyph unicode="&#x2009;" horiz-adv-x="381" />
<glyph unicode="&#x200a;" horiz-adv-x="105" />
<glyph unicode="&#x2010;" horiz-adv-x="1308" d="M166 728v96h976v-96h-976z" />
<glyph unicode="&#x2011;" horiz-adv-x="1308" d="M166 728v96h976v-96h-976z" />
<glyph unicode="&#x2012;" horiz-adv-x="1308" d="M166 728v96h976v-96h-976z" />
<glyph unicode="&#x2013;" d="M426 658v100h1074v-100h-1074z" />
<glyph unicode="&#x2014;" d="M106 658v100h1734v-100h-1734z" />
<glyph unicode="&#x2018;" horiz-adv-x="592" d="M356 1456q24 6 46 -1t39 -23t28 -38t11 -48q0 -50 -36 -83t-88 -33q-70 0 -104 51t-34 131q0 108 51 189t159 121l28 -38q-78 -36 -116 -90t-38 -120q0 -22 9 -26t21 0l24 8v0z" />
<glyph unicode="&#x2019;" horiz-adv-x="592" d="M228 1472q-24 -6 -46 2t-39 24t-28 38t-11 48q0 48 36 81t88 33q70 0 104 -51t34 -129q0 -108 -51 -190t-159 -122l-30 40q80 34 118 88t38 120q0 22 -9 26t-21 0l-24 -8v0z" />
<glyph unicode="&#x201c;" horiz-adv-x="902" d="M356 1456q24 6 46 -1t39 -23t28 -38t11 -48q0 -50 -36 -83t-88 -33q-70 0 -104 51t-34 131q0 108 51 189t159 121l28 -38q-78 -36 -116 -90t-38 -120q0 -22 9 -26t21 0zM676 1456q46 10 84 -24t38 -86q0 -50 -35 -83t-87 -33q-70 0 -105 51t-35 131q0 108 52 189t160 121 l28 -38q-78 -36 -117 -90t-39 -120q0 -22 9 -26t23 0z" />
<glyph unicode="&#x201d;" horiz-adv-x="902" d="M560 1476q-24 -6 -46 2t-39 24t-28 38t-11 48q0 48 36 81t88 33q70 0 104 -51t34 -129q0 -108 -51 -190t-159 -122l-30 40q80 34 118 88t38 120q0 22 -9 26t-21 0zM240 1476q-24 -6 -46 2t-39 24t-28 38t-11 48q0 48 36 81t88 33q70 0 104 -51t34 -129q0 -108 -51 -190 t-159 -122l-28 40q78 34 116 88t38 120q0 22 -9 26t-21 0z" />
<glyph unicode="&#x2022;" d="M972 982q90 0 155 -71t65 -173t-65 -173t-155 -71q-92 0 -156 71t-64 173t64 173t156 71z" />
<glyph unicode="&#x2026;" d="M1638 908q54 0 94 -40t40 -94q0 -52 -42 -92t-94 -40q-56 0 -93 42t-37 94t41 91t91 39zM976 908q52 0 92 -40t40 -94q0 -26 -11 -50t-30 -42t-43 -29t-50 -11q-52 0 -91 42t-39 94t40 91t92 39zM308 908q54 0 93 -40t39 -94q0 -26 -11 -50t-30 -42t-43 -29t-50 -11 q-54 0 -93 42t-39 94t42 91t92 39z" />
<glyph unicode="&#x202f;" horiz-adv-x="381" />
<glyph unicode="&#x2039;" d="M1680 1620l-1276 -880l1276 -878v-84l-1414 962l1414 960v-80z" />
<glyph unicode="&#x203a;" d="M1680 740l-1414 -962v84l1276 878l-1276 880v80z" />
<glyph unicode="&#x205f;" horiz-adv-x="476" />
<glyph unicode="&#x20ac;" d="M448 932q26 128 87 240t152 194t211 130t264 48q46 0 96 -5t97 -14t87 -20t66 -25q58 -26 81 -5t33 69h54l20 -460h-48q-18 88 -56 162t-96 128t-136 84t-180 30q-124 0 -224 -43t-175 -118t-125 -176t-70 -219h662v-68h-670q-4 -26 -6 -53t-2 -55q0 -118 24 -214h614 v-66h-598q64 -196 212 -304t360 -108q126 0 253 52t229 172l42 -36q-46 -58 -106 -106t-130 -83t-150 -55t-164 -20q-130 0 -239 35t-195 100t-148 155t-98 198h-236v66h218q-26 102 -26 220q0 26 2 52t6 50h-162v68h170v0z" />
<glyph unicode="&#x2122;" d="M808 1016q0 -46 9 -56t61 -10v-40h-194v40q26 0 41 2t23 9t9 20t1 35v410q0 46 -10 56t-64 10v40h156q14 0 17 -5t7 -15l172 -472l164 470q0 22 18 22h162v-40q-60 0 -72 -8t-12 -38v-426q0 -24 1 -38t9 -21t25 -9t49 -2v-40h-240v40q34 0 53 2t28 9t10 21t1 38v436 l-192 -540h-36l-196 546v-446zM516 910h-232v40q32 0 49 2t25 9t9 21t1 38v440q0 24 -8 30t-48 6q-42 0 -66 -5t-37 -25t-21 -61t-18 -113l-36 2l12 216q2 22 26 22h460q24 0 26 -22l12 -216l-40 -2q-8 72 -14 113t-20 61t-38 25t-68 5q-40 0 -48 -6t-8 -30v-440 q0 -24 1 -38t9 -21t25 -9t47 -2v-40z" />
<glyph unicode="&#x25fc;" horiz-adv-x="960" d="M0 960h960v-960h-960v960z" />
</font>
</defs>
</svg>
